# xmcd CD database file
#
# Track frame offsets:
#	150
#	12444
#	38224
#	55554
#	70641
#	86242
#	112957
#	128943
#	146115
#	167379
#	188112
#	209430
#	218730
#
# Disc length: 3058 seconds
#
# Revision: 0
# Processed by: cddbd v1.5.2PL0 Copyright (c) Steve Scherf et al.
# Submitted via: jetAudio 7
#
DISCID=b50bf00d
DTITLE=林海 - 遠方的寂靜
DYEAR=2003
DGENRE=New Age
TTITLE0=日光告別 Goodbye In Sunlight
TTITLE1=暗香 Flowing Fragrance
TTITLE2=永恆 Eternity
TTITLE3=初秋 The Autumn Begins
TTITLE4=遠方的寂靜 Wings Of Silence
TTITLE5=夢境 In The Dream
TTITLE6=四月 April
TTITLE7=迷宮 The Labyrinth
TTITLE8=變 Change
TTITLE9=迷失 Loss
TTITLE10=存在 Existence
TTITLE11=癡迷 Intoxicated
TTITLE12=等，黎明 Waiting For The Dawn
EXTD=YEAR: 2003
EXTT0=
EXTT1=
EXTT2=
EXTT3=
EXTT4=
EXTT5=
EXTT6=
EXTT7=
EXTT8=
EXTT9=
EXTT10=
EXTT11=
EXTT12=
PLAYORDER=
